<?xml version="1.0" encoding="UTF-8" standalone="no"?>
<!DOCTYPE svg PUBLIC "-//W3C//DTD SVG 1.1//EN" "http://www.w3.org/Graphics/SVG/1.1/DTD/svg11.dtd">
<svg xmlns="http://www.w3.org/2000/svg" version="1.1" viewBox="0.00 0.00 240.00 100.00">
<path fill="#5ebb50" d="
  M 208.39 0.00
  C 213.17 6.00 214.46 13.87 206.51 18.02
  Q 203.79 19.44 198.24 22.46
  Q 195.29 24.07 194.35 27.01
  Q 194.13 27.68 194.23 27.97
  Q 194.35 28.36 194.31 28.44
  A 0.31 0.31 0.0 0 1 193.74 28.39
  C 190.41 18.20 203.09 17.41 207.57 11.82
  Q 211.27 7.19 207.72 0.00
  L 208.39 0.00
  Z"
/>
<path fill="#0097b6" d="
  M 195.39 31.84
  C 194.68 25.95 198.77 23.49 203.60 21.00
  C 208.22 18.61 212.33 17.22 213.74 11.75
  C 214.43 9.08 212.98 5.29 211.68 2.77
  A 0.21 0.21 0.0 0 1 212.02 2.53
  Q 215.84 6.85 217.81 11.69
  C 221.88 21.69 210.19 24.85 202.63 27.87
  Q 199.20 29.24 195.91 32.04
  A 0.32 0.31 -23.7 0 1 195.39 31.84
  Z"
/>
<path fill="#727476" d="
  M 109.78 70.71
  A 0.33 0.33 0.0 0 1 109.68 71.36
  Q 103.11 71.28 91.77 71.38
  C 87.80 71.41 85.53 68.91 83.08 65.65
  Q 79.83 61.35 76.21 56.26
  A 1.14 1.14 0.0 0 0 75.28 55.78
  L 69.82 55.78
  A 0.52 0.52 0.0 0 0 69.30 56.30
  L 69.30 68.24
  A 2.30 2.30 0.0 0 0 71.60 70.54
  L 73.45 70.54
  A 0.37 0.36 -84.1 0 1 73.80 70.98
  L 73.73 71.31
  A 0.02 0.02 0.0 0 1 73.71 71.33
  L 62.07 71.33
  A 0.28 0.27 -0.0 0 1 61.79 71.06
  L 61.79 70.80
  A 0.07 0.07 0.0 0 1 61.86 70.73
  Q 64.97 70.65 65.06 67.50
  Q 65.48 52.66 65.11 37.67
  A 2.17 2.15 3.7 0 0 63.28 35.60
  L 61.39 35.30
  A 0.18 0.17 -86.4 0 1 61.24 35.12
  L 61.24 34.83
  A 0.25 0.25 0.0 0 1 61.50 34.58
  C 67.41 34.85 73.27 34.25 79.24 35.34
  A 3.47 3.24 62.0 0 1 80.20 35.67
  C 88.35 40.00 85.65 48.97 79.96 54.05
  A 0.70 0.70 0.0 0 0 79.86 54.99
  Q 82.61 58.79 89.03 66.48
  Q 92.62 70.77 98.39 70.64
  Q 100.81 70.58 100.96 68.36
  C 101.68 58.24 101.25 47.76 101.25 37.44
  A 0.58 0.58 0.0 0 0 100.66 36.86
  C 95.44 36.93 89.64 35.85 88.39 39.99
  A 0.45 0.44 -74.7 0 1 87.85 40.30
  L 87.61 40.23
  A 0.13 0.13 0.0 0 1 87.52 40.08
  L 88.70 34.51
  A 0.58 0.58 0.0 0 1 89.39 34.06
  Q 92.23 34.69 93.26 34.70
  Q 107.19 34.80 114.26 34.72
  Q 115.76 34.71 117.79 34.34
  A 0.48 0.48 0.0 0 1 118.35 34.81
  L 118.35 40.56
  A 0.24 0.23 -90.0 0 1 118.12 40.80
  L 117.80 40.80
  A 0.32 0.31 88.0 0 1 117.49 40.50
  C 117.42 38.86 116.71 37.49 114.91 37.26
  Q 110.91 36.75 106.19 36.87
  A 0.70 0.70 0.0 0 0 105.51 37.57
  L 105.51 68.25
  A 2.13 2.13 0.0 0 0 107.38 70.36
  Q 109.47 70.61 109.78 70.71
  Z
  M 69.28 37.94
  L 69.18 52.78
  A 1.57 1.57 0.0 0 0 70.74 54.36
  L 73.65 54.38
  A 7.79 7.42 -89.6 0 0 81.12 46.64
  L 81.14 44.24
  A 7.79 7.42 -89.6 0 0 73.77 36.40
  L 70.86 36.38
  A 1.57 1.57 0.0 0 0 69.28 37.94
  Z"
/>
<path fill="#727476" d="
  M 0.00 35.35
  L 0.00 34.70
  L 11.13 34.73
  A 0.17 0.17 0.0 0 1 11.30 34.90
  L 11.30 35.21
  A 0.20 0.19 -87.4 0 1 11.09 35.41
  Q 9.59 35.27 8.82 35.81
  A 0.99 0.98 -28.1 0 0 8.47 36.95
  L 18.76 64.79
  A 0.33 0.33 0.0 0 0 19.38 64.80
  L 29.61 38.09
  A 2.37 2.36 -58.6 0 0 28.99 35.50
  Q 28.74 35.27 27.15 35.34
  A 0.29 0.28 -1.0 0 1 26.85 35.06
  L 26.85 34.77
  A 0.12 0.11 -0.0 0 1 26.97 34.66
  L 55.87 34.66
  A 0.29 0.28 2.7 0 1 56.16 34.97
  L 55.55 40.59
  A 0.18 0.18 0.0 0 1 55.37 40.75
  L 55.06 40.75
  A 0.29 0.28 90.0 0 1 54.78 40.46
  Q 54.80 38.25 53.79 37.39
  A 2.07 2.05 66.3 0 0 52.60 36.92
  L 44.73 36.52
  A 0.46 0.45 -88.2 0 0 44.25 36.98
  L 44.25 50.50
  A 0.43 0.43 0.0 0 0 44.69 50.93
  L 53.49 50.67
  A 0.84 0.83 -69.9 0 0 54.09 50.39
  Q 54.56 49.89 54.82 49.70
  A 0.37 0.37 0.0 0 1 55.40 50.03
  L 54.79 56.40
  A 0.21 0.21 0.0 0 1 54.58 56.59
  L 54.32 56.59
  A 0.03 0.01 67.5 0 1 54.30 56.57
  Q 54.12 54.27 52.62 53.16
  A 1.10 1.10 0.0 0 0 52.04 52.95
  L 44.82 52.67
  A 0.54 0.53 1.0 0 0 44.26 53.20
  L 44.26 66.78
  A 2.43 2.43 0.0 0 0 46.12 69.14
  Q 48.72 69.77 52.80 69.37
  C 55.68 69.09 56.17 67.21 56.89 64.88
  A 0.14 0.14 0.0 0 1 57.16 64.92
  L 57.16 70.01
  A 1.50 1.50 0.0 0 1 55.67 71.51
  Q 49.39 71.56 41.44 71.20
  C 40.03 71.14 38.34 71.55 36.79 71.27
  A 0.32 0.32 0.0 0 1 36.84 70.64
  Q 38.18 70.60 38.89 70.14
  A 1.36 1.36 0.0 0 0 39.46 69.34
  Q 39.95 67.34 39.96 65.99
  Q 40.06 52.30 39.95 37.75
  A 2.10 2.10 0.0 0 0 38.57 35.79
  Q 34.30 34.23 32.46 38.73
  Q 24.66 57.82 18.72 71.44
  A 0.90 0.90 0.0 0 1 17.06 71.41
  Q 9.54 52.58 3.51 37.52
  Q 2.91 36.01 0.00 35.35
  Z"
/>
<path fill="#727476" d="
  M 211.46 49.51
  A 0.24 0.24 0.0 0 1 211.86 49.71
  L 211.18 56.51
  A 0.09 0.09 0.0 0 1 211.09 56.59
  L 210.79 56.59
  A 0.22 0.21 2.4 0 1 210.57 56.36
  Q 210.77 52.95 207.07 52.86
  Q 201.05 52.69 201.04 52.69
  A 0.35 0.34 4.3 0 0 200.64 53.03
  L 200.67 66.59
  A 2.67 2.66 -84.0 0 0 202.77 69.19
  Q 205.56 69.79 209.34 69.31
  Q 212.77 68.87 213.03 65.20
  A 0.33 0.33 0.0 0 1 213.36 64.89
  L 213.74 64.89
  A 0.23 0.23 0.0 0 1 213.97 65.15
  L 213.18 70.36
  A 1.37 1.37 0.0 0 1 211.81 71.51
  L 193.25 71.26
  A 0.08 0.07 0.0 0 1 193.17 71.19
  L 193.17 70.88
  A 0.26 0.26 0.0 0 1 193.41 70.62
  Q 194.71 70.51 195.28 70.16
  A 1.24 1.24 0.0 0 0 195.85 69.38
  Q 196.43 66.96 196.44 64.74
  Q 196.54 41.14 196.40 38.26
  Q 196.24 35.11 192.62 35.39
  A 0.23 0.23 0.0 0 1 192.37 35.16
  L 192.37 34.86
  A 0.19 0.19 0.0 0 1 192.56 34.67
  L 212.41 34.68
  A 0.18 0.18 0.0 0 1 212.59 34.88
  L 211.93 40.45
  A 0.18 0.18 0.0 0 1 211.75 40.61
  L 211.47 40.61
  A 0.31 0.31 0.0 0 1 211.16 40.31
  C 211.15 38.57 211.04 37.43 209.15 37.09
  Q 205.51 36.45 201.30 36.66
  A 0.68 0.68 0.0 0 0 200.65 37.34
  L 200.64 50.23
  A 0.58 0.58 0.0 0 0 201.22 50.81
  L 209.65 50.81
  A 0.97 0.95 -64.7 0 0 210.27 50.58
  L 211.46 49.51
  Z"
/>
<path fill="#727476" d="
  M 236.67 49.50
  A 0.24 0.24 0.0 0 1 237.07 49.70
  L 236.39 56.51
  A 0.09 0.09 0.0 0 1 236.30 56.59
  L 236.00 56.59
  A 0.22 0.21 2.4 0 1 235.78 56.36
  Q 235.98 52.94 232.28 52.85
  Q 226.25 52.69 226.24 52.69
  A 0.35 0.34 4.3 0 0 225.84 53.03
  L 225.87 66.60
  A 2.67 2.67 0.0 0 0 227.98 69.21
  Q 230.77 69.81 234.55 69.32
  Q 237.99 68.88 238.25 65.21
  A 0.33 0.33 0.0 0 1 238.58 64.90
  L 238.96 64.90
  A 0.23 0.23 0.0 0 1 239.19 65.16
  L 238.40 70.37
  A 1.38 1.37 4.6 0 1 237.03 71.53
  L 218.44 71.28
  A 0.08 0.07 0.0 0 1 218.36 71.21
  L 218.36 70.90
  A 0.26 0.26 0.0 0 1 218.60 70.64
  Q 219.91 70.53 220.48 70.18
  A 1.24 1.24 0.0 0 0 221.05 69.40
  Q 221.63 66.98 221.64 64.75
  Q 221.73 41.12 221.59 38.24
  Q 221.43 35.09 217.80 35.37
  A 0.23 0.23 0.0 0 1 217.55 35.14
  L 217.55 34.84
  A 0.19 0.19 0.0 0 1 217.74 34.65
  L 237.62 34.65
  A 0.18 0.18 0.0 0 1 237.80 34.85
  L 237.14 40.43
  A 0.18 0.18 0.0 0 1 236.96 40.59
  L 236.68 40.59
  A 0.31 0.31 0.0 0 1 236.37 40.29
  C 236.36 38.54 236.24 37.40 234.35 37.06
  Q 230.71 36.42 226.49 36.64
  A 0.68 0.68 0.0 0 0 225.84 37.32
  L 225.84 50.22
  A 0.58 0.58 0.0 0 0 226.42 50.80
  L 234.86 50.80
  A 0.97 0.95 -64.8 0 0 235.48 50.57
  L 236.67 49.50
  Z"
/>
<path fill="#727476" d="
  M 136.64 35.19
  A 0.28 0.28 0.0 0 1 136.39 34.88
  L 136.39 34.85
  A 0.26 0.25 -80.3 0 1 136.63 34.67
  L 147.21 34.69
  A 0.22 0.21 0.0 0 1 147.43 34.90
  L 147.43 35.17
  A 0.16 0.16 0.0 0 1 147.28 35.33
  Q 144.18 35.47 144.16 38.00
  Q 144.07 49.55 144.14 64.56
  Q 144.15 66.51 144.67 69.45
  A 0.85 0.85 0.0 0 0 145.35 70.14
  L 148.49 70.75
  A 0.21 0.20 5.1 0 1 148.66 70.95
  L 148.66 71.25
  A 0.08 0.08 0.0 0 1 148.58 71.33
  L 136.79 71.33
  A 0.17 0.16 79.4 0 1 136.64 71.22
  L 136.53 70.91
  A 0.08 0.07 72.6 0 1 136.58 70.81
  L 138.76 70.18
  A 0.78 0.78 0.0 0 0 139.32 69.57
  Q 139.84 66.70 139.84 65.51
  Q 139.87 60.96 139.89 39.34
  Q 139.90 35.56 136.64 35.19
  Z"
/>
<path fill="#727476" d="
  M 152.96 35.23
  A 0.39 0.38 3.3 0 1 152.66 34.90
  L 152.66 34.87
  A 0.25 0.25 0.0 0 1 152.92 34.64
  Q 158.64 34.73 169.56 34.63
  C 181.00 34.52 190.14 40.98 189.60 53.32
  C 189.02 66.37 179.43 72.56 167.25 71.77
  Q 157.91 71.17 153.84 71.32
  A 0.26 0.25 4.5 0 1 153.58 71.02
  L 153.64 70.77
  A 0.08 0.08 0.0 0 1 153.73 70.70
  Q 156.75 70.87 156.75 66.78
  Q 156.76 46.05 156.72 37.36
  A 1.61 1.61 0.0 0 0 155.46 35.79
  L 152.96 35.23
  Z
  M 163.05 69.12
  Q 165.21 70.05 168.50 70.05
  Q 180.54 70.03 183.87 61.45
  C 187.19 52.91 184.60 43.24 176.35 38.65
  Q 172.03 36.24 164.44 36.36
  Q 162.48 36.39 161.95 36.57
  Q 161.01 36.89 161.00 38.73
  Q 160.92 58.17 161.17 66.35
  A 3.13 3.12 10.9 0 0 163.05 69.12
  Z"
/>
<path fill="#727476" d="
  M 12.39 93.94
  Q 12.12 94.42 11.45 94.48
  A 0.49 0.49 0.0 0 1 10.91 93.99
  L 10.88 82.50
  A 0.68 0.67 -0.1 0 1 11.56 81.83
  L 12.04 81.83
  A 0.59 0.59 0.0 0 1 12.63 82.42
  L 12.64 85.72
  A 0.51 0.51 0.0 0 0 13.36 86.18
  Q 17.14 84.50 18.72 87.77
  Q 20.45 91.35 17.51 93.98
  A 1.83 1.75 -69.2 0 1 16.62 94.41
  Q 14.32 94.77 13.04 93.79
  A 0.44 0.43 -57.4 0 0 12.39 93.94
  Z
  M 15.1360 86.9912
  A 3.08 2.54 -88.4 0 0 12.5110 89.9991
  A 3.08 2.54 -88.4 0 0 14.9640 93.1488
  A 3.08 2.54 -88.4 0 0 17.5890 90.1409
  A 3.08 2.54 -88.4 0 0 15.1360 86.9912
  Z"
/>
<path fill="#727476" d="
  M 52.02 93.89
  A 0.43 0.43 0.0 0 0 51.37 93.76
  Q 50.10 94.73 47.80 94.39
  A 1.82 1.75 68.9 0 1 46.91 93.97
  Q 43.96 91.36 45.67 87.77
  Q 47.23 84.50 51.01 86.16
  A 0.51 0.50 11.7 0 0 51.72 85.70
  L 51.71 82.41
  A 0.59 0.59 0.0 0 1 52.30 81.81
  L 52.78 81.81
  A 0.68 0.67 -0.2 0 1 53.46 82.48
  L 53.50 93.94
  A 0.49 0.49 0.0 0 1 52.96 94.43
  Q 52.29 94.37 52.02 93.89
  Z
  M 49.3162 86.9700
  A 3.09 2.50 -89.7 0 0 46.8000 90.0469
  A 3.09 2.50 -89.7 0 0 49.2838 93.1500
  A 3.09 2.50 -89.7 0 0 51.8000 90.0731
  A 3.09 2.50 -89.7 0 0 49.3162 86.9700
  Z"
/>
<path fill="#727476" d="
  M 109.77 93.77
  Q 108.49 94.74 106.20 94.39
  A 1.82 1.75 69.1 0 1 105.31 93.97
  Q 102.38 91.35 104.09 87.78
  Q 105.66 84.52 109.43 86.19
  A 0.51 0.50 11.9 0 0 110.14 85.73
  L 110.14 82.44
  A 0.59 0.59 0.0 0 1 110.73 81.85
  L 111.21 81.85
  A 0.68 0.67 -0.0 0 1 111.89 82.52
  L 111.89 93.96
  A 0.49 0.49 0.0 0 1 111.35 94.45
  Q 110.68 94.39 110.41 93.91
  A 0.43 0.43 0.0 0 0 109.77 93.77
  Z
  M 107.8678 86.9919
  A 3.09 2.47 -88.0 0 0 105.2915 89.9938
  A 3.09 2.47 -88.0 0 0 107.6522 93.1681
  A 3.09 2.47 -88.0 0 0 110.2285 90.1662
  A 3.09 2.47 -88.0 0 0 107.8678 86.9919
  Z"
/>
<path fill="#727476" d="
  M 225.54 93.90
  A 0.43 0.43 0.0 0 0 224.90 93.76
  Q 223.62 94.73 221.33 94.38
  A 1.82 1.75 69.1 0 1 220.44 93.96
  Q 217.51 91.35 219.21 87.78
  Q 220.78 84.52 224.55 86.18
  A 0.51 0.50 11.8 0 0 225.26 85.72
  L 225.26 82.43
  A 0.59 0.59 0.0 0 1 225.85 81.84
  L 226.33 81.84
  A 0.68 0.67 -0.0 0 1 227.01 82.51
  L 227.02 93.95
  A 0.49 0.49 0.0 0 1 226.48 94.44
  Q 225.81 94.38 225.54 93.90
  Z
  M 223.0953 86.9661
  A 3.11 2.49 -86.4 0 0 220.4149 89.9137
  A 3.11 2.49 -86.4 0 0 222.7047 93.1739
  A 3.11 2.49 -86.4 0 0 225.3851 90.2263
  A 3.11 2.49 -86.4 0 0 223.0953 86.9661
  Z"
/>
<circle fill="#727476" cx="56.75" cy="83.26" r="1.08"/>
<circle fill="#727476" cx="145.16" cy="83.25" r="1.10"/>
<circle fill="#727476" cx="156.56" cy="83.27" r="1.06"/>
<circle fill="#727476" cx="230.36" cy="83.25" r="1.10"/>
<path fill="#727476" d="
  M 142.52 93.37
  A 0.38 0.38 0.0 0 1 142.60 94.08
  Q 140.14 95.29 138.84 93.24
  A 1.32 1.28 -61.6 0 1 138.65 92.56
  L 138.64 87.88
  A 0.74 0.74 0.0 0 0 138.21 87.21
  Q 138.19 87.20 137.71 87.18
  Q 137.03 87.16 137.16 86.77
  Q 137.18 86.70 137.45 86.30
  Q 137.66 85.99 137.92 85.96
  Q 138.76 85.83 138.65 85.13
  A 0.97 0.96 70.8 0 1 139.13 84.13
  Q 139.56 83.88 139.78 83.85
  A 0.60 0.60 0.0 0 1 140.43 84.61
  Q 140.42 84.64 140.33 84.92
  A 0.73 0.72 8.9 0 0 141.03 85.87
  L 142.08 85.87
  A 0.49 0.48 90.0 0 1 142.56 86.36
  L 142.56 86.72
  A 0.55 0.54 -90.0 0 1 142.02 87.27
  L 141.04 87.27
  A 0.66 0.66 0.0 0 0 140.38 87.93
  L 140.38 92.10
  A 1.01 1.01 0.0 0 0 141.18 93.09
  L 142.52 93.37
  Z"
/>
<path fill="#727476" d="
  M 23.04 86.36
  L 24.92 85.66
  A 0.52 0.52 0.0 0 1 25.62 86.15
  L 25.62 86.41
  A 0.85 0.85 0.0 0 1 24.91 87.25
  Q 23.96 87.42 23.21 88.25
  A 1.10 1.09 -24.6 0 0 22.94 88.97
  L 22.94 93.80
  A 0.73 0.73 0.0 0 1 22.21 94.53
  L 21.84 94.53
  A 0.68 0.68 0.0 0 1 21.16 93.85
  L 21.16 86.32
  A 0.45 0.44 83.6 0 1 21.50 85.88
  Q 21.97 85.77 22.35 86.19
  A 0.64 0.63 58.5 0 0 23.04 86.36
  Z"
/>
<path fill="#727476" d="
  M 35.70 86.19
  A 0.42 0.42 0.0 0 1 36.22 85.78
  Q 36.63 85.88 37.08 86.22
  A 0.80 0.80 0.0 0 0 38.00 86.27
  C 40.38 84.74 43.04 85.81 43.26 88.80
  Q 43.51 92.01 43.27 93.91
  A 0.51 0.51 0.0 0 1 42.76 94.37
  L 42.08 94.37
  A 0.58 0.58 0.0 0 1 41.50 93.79
  L 41.50 88.81
  A 1.71 1.71 0.0 0 0 39.49 87.14
  L 39.33 87.16
  A 2.19 2.18 -3.6 0 0 37.43 89.31
  L 37.43 93.77
  A 0.61 0.61 0.0 0 1 36.82 94.38
  L 36.41 94.38
  A 0.69 0.69 0.0 0 1 35.71 93.69
  L 35.70 86.19
  Z"
/>
<path fill="#727476" d="
  M 60.65 85.83
  Q 61.06 85.93 61.51 86.27
  A 0.80 0.80 0.0 0 0 62.43 86.32
  C 64.81 84.80 67.47 85.87 67.68 88.86
  Q 67.92 92.07 67.68 93.97
  A 0.51 0.51 0.0 0 1 67.17 94.42
  L 66.49 94.42
  A 0.58 0.58 0.0 0 1 65.91 93.84
  L 65.92 88.87
  A 1.71 1.71 0.0 0 0 63.92 87.19
  L 63.76 87.21
  A 2.18 2.18 0.0 0 0 61.85 89.36
  L 61.84 93.81
  A 0.61 0.61 0.0 0 1 61.23 94.42
  L 60.82 94.42
  A 0.69 0.69 0.0 0 1 60.13 93.73
  L 60.13 86.24
  A 0.42 0.42 0.0 0 1 60.65 85.83
  Z"
/>
<path fill="#727476" d="
  M 99.53 94.03
  Q 99.30 94.18 98.42 94.38
  C 94.16 95.36 93.41 89.93 97.25 89.25
  Q 97.96 89.12 99.27 88.88
  A 0.83 0.83 0.0 0 0 99.37 87.28
  Q 97.32 86.63 96.06 87.41
  A 0.36 0.36 0.0 0 1 95.53 87.22
  L 95.39 86.85
  A 0.39 0.39 0.0 0 1 95.56 86.38
  C 97.41 85.30 101.36 85.02 101.60 88.00
  Q 101.88 91.55 101.73 93.94
  A 0.59 0.58 9.9 0 1 100.98 94.46
  Q 100.72 94.39 100.50 94.15
  A 0.76 0.75 -37.7 0 0 99.53 94.03
  Z
  M 99.9659 90.6002
  A 1.93 1.42 -32.6 0 0 97.5749 90.4437
  A 1.93 1.42 -32.6 0 0 96.7141 92.6798
  A 1.93 1.42 -32.6 0 0 99.1051 92.8363
  A 1.93 1.42 -32.6 0 0 99.9659 90.6002
  Z"
/>
<path fill="#727476" d="
  M 133.14 86.18
  A 0.63 0.62 58.5 0 0 133.82 86.35
  L 135.68 85.66
  A 0.52 0.51 79.9 0 1 136.37 86.14
  L 136.37 86.40
  A 0.84 0.84 0.0 0 1 135.67 87.23
  Q 134.73 87.40 133.99 88.22
  A 1.09 1.08 -24.6 0 0 133.72 88.93
  L 133.72 93.72
  A 0.72 0.72 0.0 0 1 133.00 94.44
  L 132.63 94.44
  A 0.67 0.67 0.0 0 1 131.96 93.77
  L 131.96 86.31
  A 0.45 0.44 83.6 0 1 132.29 85.87
  Q 132.76 85.76 133.14 86.18
  Z"
/>
<path fill="#727476" d="
  M 148.26 94.08
  A 0.60 0.59 18.1 0 1 147.88 93.34
  L 147.96 93.07
  A 0.53 0.53 0.0 0 1 148.73 92.77
  Q 150.22 93.62 151.48 92.96
  A 1.06 1.06 0.0 0 0 151.43 91.07
  Q 149.41 90.11 149.09 89.90
  A 2.16 2.14 -50.9 0 1 148.76 86.54
  Q 150.46 84.89 153.12 86.01
  A 0.49 0.49 0.0 0 1 153.30 86.79
  L 153.17 86.92
  A 0.89 0.88 32.0 0 1 152.16 87.15
  Q 151.33 86.79 150.48 87.04
  A 1.09 1.00 45.7 0 0 150.54 89.02
  Q 152.32 89.73 152.74 90.01
  A 2.28 2.27 35.3 0 1 153.30 93.28
  Q 151.74 95.32 148.26 94.08
  Z"
/>
<path fill="#727476" d="
  M 159.85 86.26
  A 0.42 0.42 0.0 0 1 160.37 85.85
  Q 160.78 85.95 161.23 86.29
  A 0.80 0.80 0.0 0 0 162.16 86.33
  C 164.53 84.79 167.20 85.85 167.43 88.85
  Q 167.69 92.06 167.46 93.97
  A 0.52 0.51 2.8 0 1 166.95 94.42
  L 166.27 94.43
  A 0.58 0.58 0.0 0 1 165.68 93.85
  L 165.67 88.87
  A 1.72 1.71 -5.1 0 0 163.65 87.19
  L 163.49 87.22
  A 2.19 2.18 -3.8 0 0 161.59 89.38
  L 161.60 93.84
  A 0.61 0.61 0.0 0 1 161.00 94.45
  L 160.59 94.46
  A 0.69 0.69 0.0 0 1 159.89 93.77
  L 159.85 86.26
  Z"
/>
<path fill="#727476" d="
  M 175.26 93.56
  C 171.20 96.45 168.01 91.34 169.72 87.97
  Q 171.45 84.57 175.22 86.16
  A 1.08 1.05 -50.6 0 0 176.27 86.04
  Q 176.67 85.76 176.98 85.82
  A 0.62 0.62 0.0 0 1 177.49 86.43
  Q 177.53 90.62 177.43 93.94
  C 177.32 97.91 173.45 98.77 170.44 97.51
  A 0.81 0.81 0.0 0 1 169.95 96.65
  L 169.96 96.58
  A 0.52 0.52 0.0 0 1 170.60 96.15
  C 173.19 96.77 175.62 96.96 175.86 93.90
  A 0.38 0.38 0.0 0 0 175.26 93.56
  Z
  M 173.4359 86.9700
  A 3.04 2.47 -89.7 0 0 170.9500 89.9971
  A 3.04 2.47 -89.7 0 0 173.4041 93.0500
  A 3.04 2.47 -89.7 0 0 175.8900 90.0229
  A 3.04 2.47 -89.7 0 0 173.4359 86.9700
  Z"
/>
<path fill="#727476" d="
  M 202.26 86.71
  C 203.82 85.81 205.04 84.95 206.69 86.25
  C 208.27 87.51 207.81 92.27 207.73 93.89
  A 0.60 0.60 0.0 0 1 207.13 94.46
  L 206.70 94.46
  A 0.59 0.59 0.0 0 1 206.11 93.87
  L 206.11 88.86
  A 1.71 1.71 0.0 0 0 204.28 87.15
  L 203.96 87.17
  A 1.70 1.69 -2.0 0 0 202.38 88.86
  L 202.38 93.78
  A 0.62 0.62 0.0 0 1 201.76 94.40
  L 201.25 94.40
  A 0.63 0.63 0.0 0 1 200.62 93.76
  L 200.64 88.71
  A 1.58 1.58 0.0 0 0 198.84 87.14
  L 198.74 87.16
  A 2.06 2.06 0.0 0 0 196.92 89.18
  L 196.86 93.68
  A 0.78 0.77 -1.6 0 1 196.12 94.45
  L 196.07 94.46
  A 0.79 0.79 0.0 0 1 195.26 93.68
  L 195.18 86.53
  A 0.63 0.62 -73.5 0 1 196.15 86.00
  Q 196.29 86.09 196.48 86.26
  A 0.74 0.73 48.7 0 0 197.36 86.32
  Q 199.76 84.75 201.47 86.59
  A 0.65 0.65 0.0 0 0 202.26 86.71
  Z"
/>
<path fill="#727476" d="
  M 216.37 92.84
  A 0.43 0.43 0.0 0 1 216.91 93.26
  L 216.91 93.93
  A 0.21 0.20 -7.2 0 1 216.75 94.13
  C 213.18 94.89 209.34 94.61 209.61 89.76
  Q 209.85 85.60 214.47 85.57
  A 2.39 2.38 79.7 0 1 216.72 87.13
  L 217.32 88.75
  A 1.22 1.22 0.0 0 1 216.18 90.39
  L 211.96 90.39
  A 0.65 0.65 0.0 0 0 211.43 91.42
  L 211.95 92.13
  A 2.68 2.65 -14.3 0 0 213.79 93.21
  Q 214.60 93.31 216.37 92.84
  Z
  M 211.70 89.25
  L 215.50 89.23
  A 0.21 0.21 0.0 0 0 215.71 89.02
  L 215.71 88.92
  A 2.01 2.00 89.8 0 0 213.71 86.92
  L 213.49 86.92
  A 2.01 2.00 89.8 0 0 211.49 88.94
  L 211.49 89.04
  A 0.21 0.21 0.0 0 0 211.70 89.25
  Z"
/>
<path fill="#727476" d="
  M 32.06 94.10
  A 0.76 0.75 -38.1 0 0 31.09 93.99
  Q 30.86 94.14 29.99 94.35
  C 25.75 95.36 24.96 89.95 28.78 89.25
  Q 29.49 89.11 30.79 88.86
  A 0.82 0.82 0.0 0 0 30.88 87.27
  Q 28.83 86.64 27.58 87.42
  A 0.36 0.36 0.0 0 1 27.05 87.24
  L 26.91 86.87
  A 0.39 0.38 65.0 0 1 27.07 86.40
  C 28.91 85.31 32.84 85.00 33.10 87.97
  Q 33.41 91.50 33.28 93.88
  A 0.58 0.58 0.0 0 1 32.54 94.40
  Q 32.28 94.34 32.06 94.10
  Z
  M 31.5242 90.5309
  A 1.95 1.39 -33.6 0 0 29.1308 90.4522
  A 1.95 1.39 -33.6 0 0 28.2758 92.6891
  A 1.95 1.39 -33.6 0 0 30.6692 92.7678
  A 1.95 1.39 -33.6 0 0 31.5242 90.5309
  Z"
/>
<rect fill="#727476" x="-0.94" y="-4.29" transform="translate(56.82,90.14) rotate(-0.1)" width="1.88" height="8.58" rx="0.56"/>
<path fill="#727476" d="
  M 76.14 93.87
  A 0.38 0.38 0.0 0 0 75.54 93.53
  C 71.49 96.45 68.27 91.34 69.97 87.96
  Q 71.69 84.55 75.47 86.12
  A 1.09 1.05 -50.9 0 0 76.52 86.00
  Q 76.92 85.72 77.23 85.78
  A 0.62 0.62 0.0 0 1 77.74 86.38
  Q 77.80 90.58 77.71 93.91
  C 77.62 97.88 73.75 98.76 70.73 97.51
  A 0.81 0.81 0.0 0 1 70.23 96.65
  L 70.24 96.58
  A 0.52 0.52 0.0 0 1 70.88 96.15
  C 73.48 96.76 75.91 96.94 76.14 93.87
  Z
  M 73.8465 86.9731
  A 3.01 2.48 -87.4 0 0 71.2326 89.8675
  A 3.01 2.48 -87.4 0 0 73.5735 92.9869
  A 3.01 2.48 -87.4 0 0 76.1874 90.0925
  A 3.01 2.48 -87.4 0 0 73.8465 86.9731
  Z"
/>
<path fill="#727476" d="
  M 117.48 91.92
  Q 117.54 91.92 117.59 91.90
  A 0.30 0.12 -78.1 0 0 117.71 91.72
  L 119.59 86.59
  A 1.19 1.18 -79.6 0 1 120.70 85.82
  L 121.07 85.82
  A 0.47 0.47 0.0 0 1 121.51 86.47
  L 118.55 93.81
  A 1.24 1.06 78.9 0 1 118.40 94.08
  Q 118.15 94.40 117.47 94.40
  Q 116.80 94.40 116.55 94.07
  A 1.24 1.06 -78.3 0 1 116.40 93.80
  L 113.51 86.43
  A 0.47 0.47 0.0 0 1 113.95 85.79
  L 114.32 85.79
  A 1.19 1.18 80.2 0 1 115.42 86.57
  L 117.26 91.72
  A 0.30 0.12 78.7 0 0 117.38 91.90
  Q 117.43 91.92 117.48 91.92
  Z"
/>
<path fill="#727476" d="
  M 128.96 92.91
  A 0.43 0.43 0.0 0 1 129.49 93.35
  L 129.47 94.02
  A 0.21 0.20 -5.4 0 1 129.30 94.21
  C 125.71 94.86 121.88 94.45 122.31 89.62
  Q 122.68 85.47 127.30 85.59
  A 2.39 2.38 81.5 0 1 129.49 87.22
  L 130.04 88.85
  A 1.22 1.22 0.0 0 1 128.85 90.46
  L 124.63 90.32
  A 0.65 0.65 0.0 0 0 124.07 91.33
  L 124.57 92.06
  A 2.67 2.65 -12.5 0 0 126.37 93.20
  Q 127.18 93.32 128.96 92.91
  Z
  M 124.41 89.30
  L 128.15 89.20
  A 0.22 0.22 0.0 0 0 128.37 88.97
  L 128.36 88.85
  A 1.98 1.97 88.4 0 0 126.34 86.93
  L 126.10 86.93
  A 1.98 1.97 88.4 0 0 124.18 88.97
  L 124.19 89.09
  A 0.22 0.22 0.0 0 0 124.41 89.30
  Z"
/>
<rect fill="#727476" x="-0.87" y="-4.32" transform="translate(145.12,90.10) rotate(-0.2)" width="1.74" height="8.64" rx="0.70"/>
<rect fill="#727476" x="-0.82" y="-4.27" transform="translate(156.56,90.09) rotate(-0.2)" width="1.64" height="8.54" rx="0.48"/>
<rect fill="#727476" x="-0.88" y="-4.26" transform="translate(230.37,90.14) rotate(-0.3)" width="1.76" height="8.52" rx="0.48"/>
<path fill="#727476" d="
  M 240.00 87.90
  L 240.00 94.26
  Q 239.27 94.57 238.51 94.09
  A 0.98 0.97 -41.0 0 0 237.57 94.03
  C 232.75 96.35 231.53 89.93 235.27 89.31
  Q 237.19 88.99 237.56 88.91
  A 0.82 0.82 0.0 0 0 237.78 87.39
  Q 236.24 86.53 234.46 87.41
  A 0.45 0.45 0.0 0 1 233.84 87.16
  L 233.70 86.79
  A 0.45 0.45 0.0 0 1 233.94 86.22
  Q 238.31 84.33 240.00 87.90
  Z
  M 238.2573 90.5508
  A 1.95 1.45 -32.9 0 0 235.8324 90.3926
  A 1.95 1.45 -32.9 0 0 234.9827 92.6692
  A 1.95 1.45 -32.9 0 0 237.4076 92.8274
  A 1.95 1.45 -32.9 0 0 238.2573 90.5508
  Z"
/>
<circle fill="#727476" cx="85.64" cy="89.74" r="2.32"/>
<circle fill="#727476" cx="186.06" cy="89.76" r="2.32"/>
</svg>
